<?xml version="1.0" encoding="UTF-8" standalone="no"?>
<svg
   xmlns:dc="http://purl.org/dc/elements/1.1/"
   xmlns:cc="http://creativecommons.org/ns#"
   xmlns:rdf="http://www.w3.org/1999/02/22-rdf-syntax-ns#"
   xmlns:svg="http://www.w3.org/2000/svg"
   xmlns="http://www.w3.org/2000/svg"
   xmlns:sodipodi="http://sodipodi.sourceforge.net/DTD/sodipodi-0.dtd"
   xmlns:inkscape="http://www.inkscape.org/namespaces/inkscape"
   version="1.1"
   x="0px"
   y="0px"
   viewBox="0 0 64 64"
   xml:space="preserve"
   id="svg43"
   sodipodi:docname="add.svg"
   width="64"
   height="64"
   inkscape:version="0.92.1 r15371"><metadata
     id="metadata49"><rdf:RDF><cc:Work
         rdf:about=""><dc:format>image/svg+xml</dc:format><dc:type
           rdf:resource="http://purl.org/dc/dcmitype/StillImage" /><dc:title></dc:title></cc:Work></rdf:RDF></metadata><defs
     id="defs47" /><sodipodi:namedview
     pagecolor="#ffffff"
     bordercolor="#666666"
     borderopacity="1"
     objecttolerance="10"
     gridtolerance="10"
     guidetolerance="10"
     inkscape:pageopacity="0"
     inkscape:pageshadow="2"
     inkscape:window-width="1858"
     inkscape:window-height="1057"
     id="namedview45"
     showgrid="false"
     fit-margin-top="0"
     fit-margin-left="0"
     fit-margin-right="0"
     fit-margin-bottom="0"
     inkscape:zoom="7.12"
     inkscape:cx="32"
     inkscape:cy="19.5"
     inkscape:window-x="54"
     inkscape:window-y="-8"
     inkscape:window-maximized="1"
     inkscape:current-layer="svg43" /><path
     d="m 49,34 v -4 c 0,-1.1 -0.9,-2 -2,-2 H 36 V 17 c 0,-1.1 -0.9,-2 -2,-2 h -4 c -1.1,0 -2,0.9 -2,2 V 28 H 17 c -1.1,0 -2,0.9 -2,2 v 4 c 0,1.1 0.9,2 2,2 h 11 v 11 c 0,1.1 0.9,2 2,2 h 4 c 1.1,0 2,-0.9 2,-2 V 36 h 11 c 1.1,0 2,-0.9 2,-2 z M 34,34 V 47 H 30 V 34 H 17 V 30 H 30 V 17 h 4 v 13 h 13 v 4 z M 52,0 H 41 c -1.1,0 -2,0.9 -2,2 v 4 c 0,1.1 0.9,2 2,2 h 11 c 2.2,0 4,1.8 4,4 v 11 c 0,1.1 0.9,2 2,2 h 4 c 1.1,0 2,-0.9 2,-2 V 12 C 64,5.4 58.6,0 52,0 Z M 62,23 H 58 V 12 C 58,8.7 55.3,6 52,6 H 41 V 2 h 11 c 5.5,0 10,4.5 10,10 z M 2,25 h 4 c 1.1,0 2,-0.9 2,-2 V 12 C 8,9.8 9.8,8 12,8 h 11 c 1.1,0 2,-0.9 2,-2 V 2 C 25,0.9 24.1,0 23,0 H 12 C 5.4,0 0,5.4 0,12 v 11 c 0,1.1 0.9,2 2,2 z M 2,12 C 2,6.5 6.5,2 12,2 H 23 V 6 H 12 C 8.7,6 6,8.7 6,12 V 23 H 2 Z m 60,27 h -4 c -1.1,0 -2,0.9 -2,2 v 11 c 0,2.2 -1.8,4 -4,4 H 41 c -1.1,0 -2,0.9 -2,2 v 4 c 0,1.1 0.9,2 2,2 h 11 c 6.6,0 12,-5.4 12,-12 V 41 c 0,-1.1 -0.9,-2 -2,-2 z m 0,13 c 0,5.5 -4.5,10 -10,10 H 41 v -4 h 11 c 3.3,0 6,-2.7 6,-6 V 41 h 4 z M 23,56 H 12 C 9.8,56 8,54.2 8,52 V 41 C 8,39.9 7.1,39 6,39 H 2 c -1.1,0 -2,0.9 -2,2 v 11 c 0,6.6 5.4,12 12,12 h 11 c 1.1,0 2,-0.9 2,-2 v -4 c 0,-1.1 -0.9,-2 -2,-2 z m 0,6 H 12 C 6.5,62 2,57.5 2,52 V 41 h 4 v 11 c 0,3.3 2.7,6 6,6 h 11 z"
     id="path37"
     inkscape:connector-curvature="0" /></svg>