<?xml version="1.0" encoding="UTF-8" standalone="no"?>
<svg
   xmlns:dc="http://purl.org/dc/elements/1.1/"
   xmlns:cc="http://creativecommons.org/ns#"
   xmlns:rdf="http://www.w3.org/1999/02/22-rdf-syntax-ns#"
   xmlns:svg="http://www.w3.org/2000/svg"
   xmlns="http://www.w3.org/2000/svg"
   xmlns:sodipodi="http://sodipodi.sourceforge.net/DTD/sodipodi-0.dtd"
   xmlns:inkscape="http://www.inkscape.org/namespaces/inkscape"
   version="1.1"
   x="0px"
   y="0px"
   viewBox="0 0 83.5 81"
   enable-background="new 0 0 100 100"
   xml:space="preserve"
   id="svg3727"
   sodipodi:docname="settings.svg"
   width="83.5"
   height="81"
   inkscape:version="0.92.1 r15371"><metadata
     id="metadata3733"><rdf:RDF><cc:Work
         rdf:about=""><dc:format>image/svg+xml</dc:format><dc:type
           rdf:resource="http://purl.org/dc/dcmitype/StillImage" /><dc:title></dc:title></cc:Work></rdf:RDF></metadata><defs
     id="defs3731" /><sodipodi:namedview
     pagecolor="#ffffff"
     bordercolor="#666666"
     borderopacity="1"
     objecttolerance="10"
     gridtolerance="10"
     guidetolerance="10"
     inkscape:pageopacity="0"
     inkscape:pageshadow="2"
     inkscape:window-width="1858"
     inkscape:window-height="1057"
     id="namedview3729"
     showgrid="false"
     fit-margin-top="0"
     fit-margin-left="0"
     fit-margin-right="0"
     fit-margin-bottom="0"
     inkscape:zoom="1.888"
     inkscape:cx="41.75"
     inkscape:cy="28"
     inkscape:window-x="54"
     inkscape:window-y="-8"
     inkscape:window-maximized="1"
     inkscape:current-layer="svg3727" /><path
     d="M 51,41.75 H 44.25 V 2.5 C 44.25,1.119 43.131,0 41.75,0 40.369,0 39.25,1.119 39.25,2.5 V 41.75 H 32.5 c -1.381,0 -2.5,1.119 -2.5,2.5 v 18.5 c 0,1.381 1.119,2.5 2.5,2.5 h 6.75 V 78.5 c 0,1.381 1.119,2.5 2.5,2.5 1.381,0 2.5,-1.119 2.5,-2.5 V 65.25 H 51 c 1.381,0 2.5,-1.119 2.5,-2.5 v -18.5 c 0,-1.381 -1.119,-2.5 -2.5,-2.5 z m -2.5,18.5 H 35 V 46.75 H 48.5 Z M 21,15.75 H 14.25 V 2.5 C 14.25,1.119 13.131,0 11.75,0 10.369,0 9.25,1.119 9.25,2.5 V 15.75 H 2.5 c -1.381,0 -2.5,1.119 -2.5,2.5 v 18.5 c 0,1.381 1.119,2.5 2.5,2.5 H 9.25 V 78.5 c 0,1.381 1.119,2.5 2.5,2.5 1.381,0 2.5,-1.119 2.5,-2.5 V 39.25 H 21 c 1.381,0 2.5,-1.119 2.5,-2.5 v -18.5 c 0,-1.381 -1.119,-2.5 -2.5,-2.5 z m -2.5,18.5 H 5 V 20.75 H 18.5 Z M 81,15.75 H 74.25 V 2.5 C 74.25,1.119 73.131,0 71.75,0 70.369,0 69.25,1.119 69.25,2.5 V 15.75 H 62.5 c -1.381,0 -2.5,1.119 -2.5,2.5 v 18.5 c 0,1.381 1.119,2.5 2.5,2.5 h 6.75 V 78.5 c 0,1.381 1.119,2.5 2.5,2.5 1.381,0 2.5,-1.119 2.5,-2.5 V 39.25 H 81 c 1.381,0 2.5,-1.119 2.5,-2.5 v -18.5 c 0,-1.381 -1.119,-2.5 -2.5,-2.5 z m -2.5,18.5 H 65 v -13.5 h 13.5 z"
     id="path3721"
     inkscape:connector-curvature="0" /></svg>